<?xml version="1.0" standalone="no"?>
<!DOCTYPE svg PUBLIC "-//W3C//DTD SVG 20010904//EN"
 "http://www.w3.org/TR/2001/REC-SVG-20010904/DTD/svg10.dtd">
<svg version="1.0" xmlns="http://www.w3.org/2000/svg"
 width="1000.000000pt" height="1000.000000pt" viewBox="0 0 1000.000000 1000.000000"
 preserveAspectRatio="xMidYMid meet">
<metadata>
Created by potrace 1.11, written by Peter Selinger 2001-2013
</metadata>
<g transform="translate(0.000000,1000.000000) scale(0.100000,-0.100000)"
fill="#000000" stroke="none">
<path d="M2665 9416 c-22 -12 -42 -24 -45 -27 -3 -3 -25 -15 -50 -28 -25 -12
-58 -31 -75 -42 -16 -10 -37 -22 -46 -26 -61 -30 -401 -259 -407 -275 -2 -4
-8 -8 -14 -8 -11 0 -110 -79 -116 -92 -2 -5 -8 -8 -14 -8 -5 0 -15 -6 -23 -12
-7 -7 -27 -24 -45 -38 -18 -14 -37 -30 -44 -36 -6 -5 -49 -43 -96 -84 -88 -78
-345 -332 -415 -411 -126 -143 -216 -255 -314 -389 -22 -30 -44 -59 -49 -65
-4 -5 -40 -59 -80 -120 -39 -60 -75 -114 -80 -120 -4 -5 -32 -53 -61 -105 -30
-52 -64 -111 -76 -130 -12 -19 -38 -69 -58 -110 -21 -41 -42 -82 -46 -90 -20
-34 -74 -157 -166 -375 -7 -16 -29 -77 -50 -135 -20 -58 -42 -121 -50 -140 -7
-19 -14 -39 -15 -45 -1 -5 -4 -14 -6 -20 -39 -125 -108 -402 -133 -535 -6 -30
-12 -64 -15 -75 -2 -11 -7 -42 -10 -70 -4 -27 -9 -57 -11 -65 -2 -8 -7 -42
-11 -75 -3 -33 -8 -73 -10 -90 -19 -133 -28 -314 -28 -570 0 -233 5 -370 18
-490 3 -22 7 -65 10 -95 5 -56 13 -116 21 -160 3 -14 7 -43 11 -65 3 -22 8
-53 11 -70 3 -16 7 -40 7 -52 1 -13 4 -23 8 -23 4 0 6 -8 5 -17 -1 -17 49
-251 61 -283 3 -8 6 -19 7 -25 11 -47 38 -142 53 -185 3 -8 6 -19 7 -25 4 -14
45 -137 52 -155 3 -8 7 -21 9 -28 3 -14 56 -154 79 -207 7 -16 25 -59 40 -95
14 -36 42 -95 60 -132 19 -38 33 -68 31 -68 -3 0 15 -36 40 -80 24 -44 44 -84
44 -89 0 -4 9 -20 21 -35 11 -14 17 -26 13 -26 -4 0 -1 -8 7 -17 8 -10 25 -38
38 -63 14 -25 37 -64 53 -87 15 -23 28 -46 28 -52 0 -6 5 -11 10 -11 6 0 9 -3
8 -8 -1 -4 20 -40 47 -81 28 -40 54 -82 60 -92 5 -10 13 -19 17 -19 5 0 8 -4
8 -10 0 -5 7 -18 14 -27 8 -10 33 -43 55 -73 22 -30 44 -59 48 -65 5 -5 22
-28 38 -50 17 -22 32 -42 35 -45 3 -3 24 -27 45 -55 98 -123 162 -192 340
-370 158 -158 307 -296 328 -304 6 -2 21 -14 33 -26 13 -13 51 -45 86 -71 35
-27 70 -54 78 -61 54 -43 112 -83 119 -83 5 0 11 -4 13 -8 4 -11 215 -152 227
-152 5 0 11 -3 13 -7 3 -8 106 -73 115 -73 3 0 17 -8 31 -18 63 -44 200 -110
204 -99 2 7 3 774 3 1704 -1 1514 1 1693 15 1694 20 1 4532 1 4545 0 8 -1 11
-533 10 -1698 0 -934 1 -1701 3 -1705 6 -15 434 233 527 304 6 5 69 50 140
102 72 52 177 134 235 183 58 48 118 99 135 113 78 66 475 472 475 486 0 2 8
12 18 22 37 39 78 88 94 114 10 15 29 38 43 52 14 14 22 26 18 26 -4 0 -1 6 7
13 9 7 31 34 50 62 19 27 39 54 43 60 27 33 137 197 137 204 0 4 8 16 18 27 9
10 28 39 41 64 13 25 29 52 36 60 7 8 15 22 19 30 4 8 20 38 35 65 16 28 55
102 88 165 32 63 62 118 66 121 5 3 8 8 6 10 -1 2 7 24 19 49 52 114 72 163
72 174 0 7 6 18 13 25 6 6 12 15 12 19 1 8 53 149 66 177 5 11 11 29 13 40 3
11 12 38 21 60 10 22 19 51 22 64 2 14 7 29 11 35 3 6 7 16 8 22 1 7 11 43 22
80 36 120 82 302 97 379 2 11 4 20 5 20 1 0 3 14 5 30 3 25 14 83 20 105 2 9
17 105 21 130 1 14 6 45 9 70 4 25 8 61 10 80 2 19 4 35 5 35 1 0 3 20 4 45 2
25 8 92 12 150 16 193 10 658 -11 860 -3 25 -7 65 -9 90 -3 25 -7 57 -10 70
-3 14 -8 45 -11 70 -3 25 -7 55 -9 66 -2 12 -7 37 -10 55 -3 19 -8 44 -10 55
-2 12 -7 39 -11 60 -8 57 -64 290 -76 322 -6 15 -10 28 -10 30 1 1 1 3 0 5 0
1 -2 10 -4 19 -8 41 -103 337 -126 394 -7 16 -13 32 -14 37 -2 4 -4 9 -5 12
-1 3 -3 8 -5 13 -2 9 -6 18 -63 152 -52 125 -166 360 -199 412 -12 21 -23 44
-23 53 0 8 -5 15 -10 15 -6 0 -15 12 -20 26 -6 14 -29 57 -53 95 -23 38 -51
85 -62 103 -24 41 -178 267 -199 293 -8 10 -35 45 -60 78 -173 232 -526 605
-732 773 -190 156 -284 227 -419 318 -38 26 -72 51 -75 55 -3 3 -15 9 -27 13
-13 4 -23 12 -23 17 0 5 -7 9 -15 9 -8 0 -15 5 -15 10 0 6 -4 10 -9 10 -6 0
-30 14 -54 30 -25 17 -48 30 -52 30 -4 0 -19 8 -33 19 -15 10 -63 37 -107 61
-44 24 -84 46 -90 50 -42 30 -40 114 -40 -1614 l0 -1631 -2275 -1 c-1251 0
-2280 1 -2286 3 -7 3 -10 500 -10 1629 1 894 -1 1627 -4 1628 -3 2 -23 -6 -45
-18z"/>
</g>
</svg>
